<svg xmlns="http://www.w3.org/2000/svg" xmlns:xlink="http://www.w3.org/1999/xlink" contentStyleType="text/css" data-diagram-type="CLASS" height="1013px" preserveAspectRatio="none" style="width:1172px;height:1013px;background:#FFFFFF;" version="1.1" viewBox="0 0 1172 1013" width="1172px" zoomAndPan="magnify"><defs/><g><!--cluster org--><g class="cluster" data-entity="org" data-source-line="3" data-uid="ent0004" id="cluster_org"><path d="M8.5,6 L36.0439,6 A3.75,3.75 0 0 1 38.5439,8.5 L45.5439,28.2969 L1162.5,28.2969 A2.5,2.5 0 0 1 1165,30.7969 L1165,1003.95 A2.5,2.5 0 0 1 1162.5,1006.45 L8.5,1006.45 A2.5,2.5 0 0 1 6,1003.95 L6,8.5 A2.5,2.5 0 0 1 8.5,6" fill="none" style="stroke:#000000;stroke-width:1.5;"/><line style="stroke:#000000;stroke-width:1.5;" x1="6" x2="45.5439" y1="28.2969" y2="28.2969"/><text fill="#000000" font-family="sans-serif" font-size="14" font-weight="bold" lengthAdjust="spacing" textLength="26.5439" x="10" y="20.9951">org</text></g><!--cluster semaphor34--><g class="cluster" data-entity="semaphor34" data-source-line="3" data-uid="ent0005" id="cluster_semaphor34"><path d="M32.5,49 L131.3564,49 A3.75,3.75 0 0 1 133.8564,51.5 L140.8564,71.2969 L1138.5,71.2969 A2.5,2.5 0 0 1 1141,73.7969 L1141,979.95 A2.5,2.5 0 0 1 1138.5,982.45 L32.5,982.45 A2.5,2.5 0 0 1 30,979.95 L30,51.5 A2.5,2.5 0 0 1 32.5,49" fill="none" style="stroke:#000000;stroke-width:1.5;"/><line style="stroke:#000000;stroke-width:1.5;" x1="30" x2="140.8564" y1="71.2969" y2="71.2969"/><text fill="#000000" font-family="sans-serif" font-size="14" font-weight="bold" lengthAdjust="spacing" textLength="97.8564" x="34" y="63.9951">semaphor34</text></g><!--cluster annotation--><g class="cluster" data-entity="annotation" data-source-line="2" data-uid="ent0002" id="cluster_annotation"><path d="M625.5,636.67 L712.7148,636.67 A3.75,3.75 0 0 1 715.2148,639.17 L722.2148,658.9669 L1114.5,658.9669 A2.5,2.5 0 0 1 1117,661.4669 L1117,955.95 A2.5,2.5 0 0 1 1114.5,958.45 L625.5,958.45 A2.5,2.5 0 0 1 623,955.95 L623,639.17 A2.5,2.5 0 0 1 625.5,636.67" fill="none" style="stroke:#000000;stroke-width:1.5;"/><line style="stroke:#000000;stroke-width:1.5;" x1="623" x2="722.2148" y1="658.9669" y2="658.9669"/><text fill="#000000" font-family="sans-serif" font-size="14" font-weight="bold" lengthAdjust="spacing" textLength="86.2148" x="627" y="651.6651">annotation</text></g><!--cluster dummy--><g class="cluster" data-entity="dummy" data-source-line="24" data-uid="ent0010" id="cluster_dummy"><path d="M56.5,652.97 L115.79,652.97 A3.75,3.75 0 0 1 118.29,655.47 L125.29,675.2669 L596.5,675.2669 A2.5,2.5 0 0 1 599,677.7669 L599,749.47 A2.5,2.5 0 0 1 596.5,751.97 L56.5,751.97 A2.5,2.5 0 0 1 54,749.47 L54,655.47 A2.5,2.5 0 0 1 56.5,652.97" fill="none" style="stroke:#000000;stroke-width:1.5;"/><line style="stroke:#000000;stroke-width:1.5;" x1="54" x2="125.29" y1="675.2669" y2="675.2669"/><text fill="#000000" font-family="sans-serif" font-size="14" font-weight="bold" lengthAdjust="spacing" textLength="58.29" x="58" y="667.9651">dummy</text></g><!--cluster core--><g class="cluster" data-entity="core" data-source-line="31" data-uid="ent0014" id="cluster_core"><path d="M419.5,92 L454.8164,92 A3.75,3.75 0 0 1 457.3164,94.5 L464.3164,114.2969 L1028.5,114.2969 A2.5,2.5 0 0 1 1031,116.7969 L1031,585.17 A2.5,2.5 0 0 1 1028.5,587.67 L419.5,587.67 A2.5,2.5 0 0 1 417,585.17 L417,94.5 A2.5,2.5 0 0 1 419.5,92" fill="none" style="stroke:#000000;stroke-width:1.5;"/><line style="stroke:#000000;stroke-width:1.5;" x1="417" x2="464.3164" y1="114.2969" y2="114.2969"/><text fill="#000000" font-family="sans-serif" font-size="14" font-weight="bold" lengthAdjust="spacing" textLength="34.3164" x="421" y="106.9951">core</text></g><!--class Argument--><g class="entity" data-entity="Argument" data-source-line="3" data-uid="ent0003" id="entity_Argument"><rect fill="#F1F1F1" height="48" rx="2.5" ry="2.5" style="stroke:#181818;stroke-width:0.5;" width="101.7061" x="639.15" y="687.97"/><ellipse cx="654.15" cy="703.97" fill="#E3664A" rx="11" ry="11" style="stroke:#181818;stroke-width:1;"/><path d="M656.2281,704.4388 Q656.2281,703.5013 655.8063,702.97 Q655.3844,702.4388 654.6344,702.4388 Q653.9,702.4388 653.4781,702.97 Q653.0719,703.5013 653.0719,704.4388 Q653.0719,705.3919 653.4781,705.9231 Q653.9,706.4544 654.6344,706.4544 Q655.3844,706.4544 655.8063,705.9231 Q656.2281,705.3919 656.2281,704.4388 Z M657.775,707.845 L656.15,707.845 L656.15,707.1731 Q655.8219,707.6106 655.4,707.8138 Q654.9781,708.0169 654.3688,708.0169 Q653.0094,708.0169 652.1813,707.0481 Q651.3531,706.0638 651.3531,704.4388 Q651.3531,702.845 652.1813,701.8763 Q653.0094,700.8919 654.3688,700.8919 Q654.9625,700.8919 655.4156,701.095 Q655.8688,701.2981 656.15,701.6888 L656.15,701.345 Q656.15,700.22 655.525,699.6106 Q654.9,698.9856 653.7594,698.9856 Q652.0406,698.9856 650.9469,700.5169 Q649.8531,702.0325 649.8531,704.47 Q649.8531,707.0169 651.1031,708.5169 Q652.3688,710.0169 654.4781,710.0169 Q655.1344,710.0169 655.7594,709.8294 Q656.3844,709.6419 656.9625,709.2513 L657.7281,710.7044 Q657.0563,711.1575 656.2594,711.3763 Q655.4625,711.6106 654.5563,711.6106 Q651.65,711.6106 649.9156,709.6731 Q648.1969,707.7513 648.1969,704.47 Q648.1969,701.2513 649.7438,699.3294 Q651.3063,697.3919 653.8688,697.3919 Q655.6656,697.3919 656.7125,698.4856 Q657.775,699.5794 657.775,701.4544 L657.775,707.845 Z " fill="#000000"/><text fill="#000000" font-family="sans-serif" font-size="14" lengthAdjust="spacing" textLength="69.7061" x="668.15" y="708.8167">Argument</text><line style="stroke:#181818;stroke-width:0.5;" x1="640.15" x2="739.8561" y1="719.97" y2="719.97"/><line style="stroke:#181818;stroke-width:0.5;" x1="640.15" x2="739.8561" y1="727.97" y2="727.97"/></g><!--class ArgumentFallback--><g class="entity" data-entity="ArgumentFallback" data-source-line="5" data-uid="ent0006" id="entity_ArgumentFallback"><rect fill="#F1F1F1" height="80.5938" rx="2.5" ry="2.5" style="stroke:#181818;stroke-width:0.5;" width="159.3877" x="776.31" y="671.67"/><ellipse cx="791.31" cy="687.67" fill="#E3664A" rx="11" ry="11" style="stroke:#181818;stroke-width:1;"/><path d="M793.3881,688.1388 Q793.3881,687.2013 792.9663,686.67 Q792.5444,686.1388 791.7944,686.1388 Q791.06,686.1388 790.6381,686.67 Q790.2319,687.2013 790.2319,688.1388 Q790.2319,689.0919 790.6381,689.6231 Q791.06,690.1544 791.7944,690.1544 Q792.5444,690.1544 792.9663,689.6231 Q793.3881,689.0919 793.3881,688.1388 Z M794.935,691.545 L793.31,691.545 L793.31,690.8731 Q792.9819,691.3106 792.56,691.5138 Q792.1381,691.7169 791.5288,691.7169 Q790.1694,691.7169 789.3413,690.7481 Q788.5131,689.7638 788.5131,688.1388 Q788.5131,686.545 789.3413,685.5763 Q790.1694,684.5919 791.5288,684.5919 Q792.1225,684.5919 792.5756,684.795 Q793.0288,684.9981 793.31,685.3888 L793.31,685.045 Q793.31,683.92 792.685,683.3106 Q792.06,682.6856 790.9194,682.6856 Q789.2006,682.6856 788.1069,684.2169 Q787.0131,685.7325 787.0131,688.17 Q787.0131,690.7169 788.2631,692.2169 Q789.5288,693.7169 791.6381,693.7169 Q792.2944,693.7169 792.9194,693.5294 Q793.5444,693.3419 794.1225,692.9513 L794.8881,694.4044 Q794.2163,694.8575 793.4194,695.0763 Q792.6225,695.3106 791.7163,695.3106 Q788.81,695.3106 787.0756,693.3731 Q785.3569,691.4513 785.3569,688.17 Q785.3569,684.9513 786.9038,683.0294 Q788.4663,681.0919 791.0288,681.0919 Q792.8256,681.0919 793.8725,682.1856 Q794.935,683.2794 794.935,685.1544 L794.935,691.545 Z " fill="#000000"/><text fill="#000000" font-family="sans-serif" font-size="14" lengthAdjust="spacing" textLength="127.3877" x="805.31" y="692.5167">ArgumentFallback</text><line style="stroke:#181818;stroke-width:0.5;" x1="777.31" x2="934.6977" y1="703.67" y2="703.67"/><line style="stroke:#181818;stroke-width:0.5;" x1="777.31" x2="934.6977" y1="711.67" y2="711.67"/><ellipse cx="787.31" cy="725.3184" fill="#84BE84" rx="3" ry="3" style="stroke:#038048;stroke-width:1;"/><text fill="#000000" font-family="sans-serif" font-size="14" lengthAdjust="spacing" textLength="115.4863" x="796.31" y="728.6651">value() : String[]</text><ellipse cx="787.31" cy="741.6153" fill="#84BE84" rx="3" ry="3" style="stroke:#038048;stroke-width:1;"/><text fill="#000000" font-family="sans-serif" font-size="14" lengthAdjust="spacing" textLength="125.1318" x="796.31" y="744.962">priority() : Priority</text></g><!--class Priority--><g class="entity" data-entity="Priority" data-source-line="10" data-uid="ent0007" id="entity_Priority"><rect fill="#F1F1F1" height="113.1875" rx="2.5" ry="2.5" style="stroke:#181818;stroke-width:0.5;" width="118.6133" x="796.69" y="829.26"/><ellipse cx="828.133" cy="845.26" fill="#EB937F" rx="11" ry="11" style="stroke:#181818;stroke-width:1;"/><path d="M832.2424,851.26 L824.5236,851.26 L824.5236,838.8694 L832.2424,838.8694 L832.2424,841.0256 L826.9768,841.0256 L826.9768,843.6975 L831.7424,843.6975 L831.7424,845.8538 L826.9768,845.8538 L826.9768,849.1038 L832.2424,849.1038 L832.2424,851.26 Z " fill="#000000"/><text fill="#000000" font-family="sans-serif" font-size="14" lengthAdjust="spacing" textLength="50.0732" x="845.787" y="850.1067">Priority</text><line style="stroke:#181818;stroke-width:0.5;" x1="797.69" x2="914.3033" y1="861.26" y2="861.26"/><text fill="#000000" font-family="sans-serif" font-size="14" lengthAdjust="spacing" textLength="32.6621" x="802.69" y="878.2551">LOW</text><text fill="#000000" font-family="sans-serif" font-size="14" lengthAdjust="spacing" textLength="60.6758" x="802.69" y="894.552">NORMAL</text><text fill="#000000" font-family="sans-serif" font-size="14" lengthAdjust="spacing" textLength="36.0322" x="802.69" y="910.8489">HIGH</text><line style="stroke:#181818;stroke-width:0.5;" x1="797.69" x2="914.3033" y1="918.1506" y2="918.1506"/><ellipse cx="807.69" cy="931.7991" fill="#84BE84" rx="3" ry="3" style="stroke:#038048;stroke-width:1;"/><text fill="#000000" font-family="sans-serif" font-size="14" lengthAdjust="spacing" textLength="92.6133" x="816.69" y="935.1457">getSlot() : int</text></g><!--class Mapper--><g class="entity" data-entity="Mapper" data-source-line="18" data-uid="ent0009" id="entity_Mapper"><rect fill="#F1F1F1" height="64.2969" rx="2.5" ry="2.5" style="stroke:#181818;stroke-width:0.5;" width="130.5625" x="970.72" y="679.82"/><ellipse cx="1006.3128" cy="695.82" fill="#E3664A" rx="11" ry="11" style="stroke:#181818;stroke-width:1;"/><path d="M1008.3909,696.2888 Q1008.3909,695.3513 1007.969,694.82 Q1007.5471,694.2888 1006.7971,694.2888 Q1006.0628,694.2888 1005.6409,694.82 Q1005.2346,695.3513 1005.2346,696.2888 Q1005.2346,697.2419 1005.6409,697.7731 Q1006.0628,698.3044 1006.7971,698.3044 Q1007.5471,698.3044 1007.969,697.7731 Q1008.3909,697.2419 1008.3909,696.2888 Z M1009.9378,699.695 L1008.3128,699.695 L1008.3128,699.0231 Q1007.9846,699.4606 1007.5628,699.6638 Q1007.1409,699.8669 1006.5315,699.8669 Q1005.1721,699.8669 1004.344,698.8981 Q1003.5159,697.9138 1003.5159,696.2888 Q1003.5159,694.695 1004.344,693.7263 Q1005.1721,692.7419 1006.5315,692.7419 Q1007.1253,692.7419 1007.5784,692.945 Q1008.0315,693.1481 1008.3128,693.5388 L1008.3128,693.195 Q1008.3128,692.07 1007.6878,691.4606 Q1007.0628,690.8356 1005.9221,690.8356 Q1004.2034,690.8356 1003.1096,692.3669 Q1002.0159,693.8825 1002.0159,696.32 Q1002.0159,698.8669 1003.2659,700.3669 Q1004.5315,701.8669 1006.6409,701.8669 Q1007.2971,701.8669 1007.9221,701.6794 Q1008.5471,701.4919 1009.1253,701.1013 L1009.8909,702.5544 Q1009.219,703.0075 1008.4221,703.2263 Q1007.6253,703.4606 1006.719,703.4606 Q1003.8128,703.4606 1002.0784,701.5231 Q1000.3596,699.6013 1000.3596,696.32 Q1000.3596,693.1013 1001.9065,691.1794 Q1003.469,689.2419 1006.0315,689.2419 Q1007.8284,689.2419 1008.8753,690.3356 Q1009.9378,691.4294 1009.9378,693.3044 L1009.9378,699.695 Z " fill="#000000"/><text fill="#000000" font-family="sans-serif" font-size="14" lengthAdjust="spacing" textLength="52.8008" x="1024.8889" y="700.6667">Mapper</text><line style="stroke:#181818;stroke-width:0.5;" x1="971.72" x2="1100.2825" y1="711.82" y2="711.82"/><line style="stroke:#181818;stroke-width:0.5;" x1="971.72" x2="1100.2825" y1="719.82" y2="719.82"/><ellipse cx="981.72" cy="733.4684" fill="#84BE84" rx="3" ry="3" style="stroke:#038048;stroke-width:1;"/><text fill="#000000" font-family="sans-serif" font-size="14" lengthAdjust="spacing" textLength="104.5625" x="990.72" y="736.8151">value() : String</text></g><!--class CommandSender--><g class="entity" data-entity="CommandSender" data-source-line="25" data-uid="ent0011" id="entity_CommandSender"><rect fill="#F1F1F1" height="48" rx="2.5" ry="2.5" style="stroke:#181818;stroke-width:0.5;" width="153.584" x="70.21" y="687.97"/><ellipse cx="85.21" cy="703.97" fill="#ADD1B2" rx="11" ry="11" style="stroke:#181818;stroke-width:1;"/><path d="M88.1788,709.6106 Q87.6006,709.9075 86.96,710.0481 Q86.3194,710.2044 85.6163,710.2044 Q83.1163,710.2044 81.7881,708.5638 Q80.4756,706.9075 80.4756,703.7825 Q80.4756,700.6575 81.7881,699.0013 Q83.1163,697.345 85.6163,697.345 Q86.3194,697.345 86.96,697.5013 Q87.6163,697.6575 88.1788,697.9544 L88.1788,700.6731 Q87.5538,700.095 86.96,699.8294 Q86.3663,699.5481 85.7413,699.5481 Q84.3975,699.5481 83.71,700.6263 Q83.0225,701.6888 83.0225,703.7825 Q83.0225,705.8763 83.71,706.9544 Q84.3975,708.0169 85.7413,708.0169 Q86.3663,708.0169 86.96,707.7513 Q87.5538,707.47 88.1788,706.8919 L88.1788,709.6106 Z " fill="#000000"/><text fill="#000000" font-family="sans-serif" font-size="14" lengthAdjust="spacing" textLength="121.584" x="99.21" y="708.8167">CommandSender</text><line style="stroke:#181818;stroke-width:0.5;" x1="71.21" x2="222.794" y1="719.97" y2="719.97"/><line style="stroke:#181818;stroke-width:0.5;" x1="71.21" x2="222.794" y1="727.97" y2="727.97"/></g><!--class MethodCanvas--><g class="entity" data-entity="MethodCanvas" data-source-line="26" data-uid="ent0012" id="entity_MethodCanvas"><rect fill="#F1F1F1" height="48" rx="2.5" ry="2.5" style="stroke:#181818;stroke-width:0.5;" width="135.8926" x="447.05" y="687.97"/><ellipse cx="462.05" cy="703.97" fill="#ADD1B2" rx="11" ry="11" style="stroke:#181818;stroke-width:1;"/><path d="M465.0188,709.6106 Q464.4406,709.9075 463.8,710.0481 Q463.1594,710.2044 462.4563,710.2044 Q459.9563,710.2044 458.6281,708.5638 Q457.3156,706.9075 457.3156,703.7825 Q457.3156,700.6575 458.6281,699.0013 Q459.9563,697.345 462.4563,697.345 Q463.1594,697.345 463.8,697.5013 Q464.4563,697.6575 465.0188,697.9544 L465.0188,700.6731 Q464.3938,700.095 463.8,699.8294 Q463.2063,699.5481 462.5813,699.5481 Q461.2375,699.5481 460.55,700.6263 Q459.8625,701.6888 459.8625,703.7825 Q459.8625,705.8763 460.55,706.9544 Q461.2375,708.0169 462.5813,708.0169 Q463.2063,708.0169 463.8,707.7513 Q464.3938,707.47 465.0188,706.8919 L465.0188,709.6106 Z " fill="#000000"/><text fill="#000000" font-family="sans-serif" font-size="14" lengthAdjust="spacing" textLength="103.8926" x="476.05" y="708.8167">MethodCanvas</text><line style="stroke:#181818;stroke-width:0.5;" x1="448.05" x2="581.9426" y1="719.97" y2="719.97"/><line style="stroke:#181818;stroke-width:0.5;" x1="448.05" x2="581.9426" y1="727.97" y2="727.97"/></g><!--class MethodExtension--><g class="entity" data-entity="MethodExtension" data-source-line="27" data-uid="ent0013" id="entity_MethodExtension"><rect fill="#F1F1F1" height="48" rx="2.5" ry="2.5" style="stroke:#181818;stroke-width:0.5;" width="153.2354" x="258.38" y="687.97"/><ellipse cx="273.38" cy="703.97" fill="#ADD1B2" rx="11" ry="11" style="stroke:#181818;stroke-width:1;"/><path d="M276.3488,709.6106 Q275.7706,709.9075 275.13,710.0481 Q274.4894,710.2044 273.7863,710.2044 Q271.2863,710.2044 269.9581,708.5638 Q268.6456,706.9075 268.6456,703.7825 Q268.6456,700.6575 269.9581,699.0013 Q271.2863,697.345 273.7863,697.345 Q274.4894,697.345 275.13,697.5013 Q275.7863,697.6575 276.3488,697.9544 L276.3488,700.6731 Q275.7238,700.095 275.13,699.8294 Q274.5363,699.5481 273.9113,699.5481 Q272.5675,699.5481 271.88,700.6263 Q271.1925,701.6888 271.1925,703.7825 Q271.1925,705.8763 271.88,706.9544 Q272.5675,708.0169 273.9113,708.0169 Q274.5363,708.0169 275.13,707.7513 Q275.7238,707.47 276.3488,706.8919 L276.3488,709.6106 Z " fill="#000000"/><text fill="#000000" font-family="sans-serif" font-size="14" lengthAdjust="spacing" textLength="121.2354" x="287.38" y="708.8167">MethodExtension</text><line style="stroke:#181818;stroke-width:0.5;" x1="259.38" x2="410.6154" y1="719.97" y2="719.97"/><line style="stroke:#181818;stroke-width:0.5;" x1="259.38" x2="410.6154" y1="727.97" y2="727.97"/></g><!--class AnnotatedCommandExecutor--><g class="entity" data-entity="AnnotatedCommandExecutor" data-source-line="32" data-uid="ent0015" id="entity_AnnotatedCommandExecutor"><rect fill="#F1F1F1" height="80.5938" rx="2.5" ry="2.5" style="stroke:#181818;stroke-width:0.5;" width="410.2002" x="432.9" y="300.89"/><ellipse cx="447.9" cy="316.89" fill="#A9DCDF" rx="11" ry="11" style="stroke:#181818;stroke-width:1;"/><path d="M448.0094,312.2338 L446.8531,317.3119 L449.1813,317.3119 L448.0094,312.2338 Z M446.525,309.9994 L449.5094,309.9994 L452.8688,322.39 L450.4156,322.39 L449.65,319.3275 L446.3688,319.3275 L445.6188,322.39 L443.1813,322.39 L446.525,309.9994 Z " fill="#000000"/><text fill="#000000" font-family="sans-serif" font-size="14" font-style="italic" lengthAdjust="spacing" textLength="207.0264" x="461.9" y="321.7367">AnnotatedCommandExecutor</text><rect fill="#FFFFFF" height="15.9688" style="stroke:#181818;stroke-width:1;stroke-dasharray:2.0,2.0;" width="169.1738" x="676.9264" y="297.89"/><text fill="#000000" font-family="sans-serif" font-size="12" font-style="italic" lengthAdjust="spacing" textLength="167.1738" x="677.9264" y="310.0287">E extends MethodExtension</text><line style="stroke:#181818;stroke-width:0.5;" x1="433.9" x2="842.1002" y1="332.89" y2="332.89"/><polygon fill="none" points="443.9,341.5384,447.9,345.5384,443.9,349.5384,439.9,345.5384" style="stroke:#B38D22;stroke-width:1;"/><text fill="#000000" font-family="sans-serif" font-size="14" lengthAdjust="spacing" textLength="254.707" x="452.9" y="349.8851">commandSender : CommandSender</text><polygon fill="none" points="443.9,357.8353,447.9,361.8353,443.9,365.8353,439.9,361.8353" style="stroke:#B38D22;stroke-width:1;"/><text fill="#000000" font-family="sans-serif" font-size="14" lengthAdjust="spacing" textLength="65.7617" x="452.9" y="366.182">plugin : E</text><line style="stroke:#181818;stroke-width:0.5;" x1="433.9" x2="842.1002" y1="373.4838" y2="373.4838"/></g><!--class MethodProvider--><g class="entity" data-entity="MethodProvider" data-source-line="37" data-uid="ent0016" id="entity_MethodProvider"><rect fill="#F1F1F1" height="113.1875" rx="2.5" ry="2.5" style="stroke:#181818;stroke-width:0.5;" width="316.3633" x="493.82" y="458.48"/><ellipse cx="592.4011" cy="474.48" fill="#ADD1B2" rx="11" ry="11" style="stroke:#181818;stroke-width:1;"/><path d="M595.3698,480.1206 Q594.7917,480.4175 594.1511,480.5581 Q593.5104,480.7144 592.8073,480.7144 Q590.3073,480.7144 588.9792,479.0738 Q587.6667,477.4175 587.6667,474.2925 Q587.6667,471.1675 588.9792,469.5113 Q590.3073,467.855 592.8073,467.855 Q593.5104,467.855 594.1511,468.0113 Q594.8073,468.1675 595.3698,468.4644 L595.3698,471.1831 Q594.7448,470.605 594.1511,470.3394 Q593.5573,470.0581 592.9323,470.0581 Q591.5886,470.0581 590.9011,471.1363 Q590.2136,472.1988 590.2136,474.2925 Q590.2136,476.3863 590.9011,477.4644 Q591.5886,478.5269 592.9323,478.5269 Q593.5573,478.5269 594.1511,478.2613 Q594.7448,477.98 595.3698,477.4019 L595.3698,480.1206 Z " fill="#000000"/><text fill="#000000" font-family="sans-serif" font-size="14" lengthAdjust="spacing" textLength="110.7012" x="612.9011" y="479.3267">MethodProvider</text><line style="stroke:#181818;stroke-width:0.5;" x1="494.82" x2="809.1833" y1="490.48" y2="490.48"/><line style="stroke:#181818;stroke-width:0.5;" x1="494.82" x2="809.1833" y1="498.48" y2="498.48"/><ellipse cx="504.82" cy="512.1284" fill="#84BE84" rx="3" ry="3" style="stroke:#038048;stroke-width:1;"/><text fill="#000000" font-family="sans-serif" font-size="14" lengthAdjust="spacing" textLength="285.8857" x="513.82" y="515.4751">methodForCanvas(MethodCanvas) : void</text><ellipse cx="504.82" cy="528.4253" fill="#84BE84" rx="3" ry="3" style="stroke:#038048;stroke-width:1;"/><text fill="#000000" font-family="sans-serif" font-size="14" lengthAdjust="spacing" textLength="290.3633" x="513.82" y="531.772">methodForCanvasFallback1(String) : void</text><ellipse cx="504.82" cy="544.7222" fill="#84BE84" rx="3" ry="3" style="stroke:#038048;stroke-width:1;"/><text fill="#000000" font-family="sans-serif" font-size="14" lengthAdjust="spacing" textLength="290.3633" x="513.82" y="548.0689">methodForCanvasFallback2(String) : void</text><ellipse cx="504.82" cy="561.0191" fill="#84BE84" rx="3" ry="3" style="stroke:#038048;stroke-width:1;"/><text fill="#000000" font-family="sans-serif" font-size="14" lengthAdjust="spacing" textLength="290.3633" x="513.82" y="564.3657">methodForCanvasFallback3(String) : void</text></g><!--class MethodInvoker--><g class="entity" data-entity="MethodInvoker" data-source-line="44" data-uid="ent0017" id="entity_MethodInvoker"><rect fill="#F1F1F1" height="96.8906" rx="2.5" ry="2.5" style="stroke:#181818;stroke-width:0.5;" width="581.4678" x="433.27" y="127"/><ellipse cx="581.749" cy="143" fill="#ADD1B2" rx="11" ry="11" style="stroke:#181818;stroke-width:1;"/><path d="M584.7178,148.6406 Q584.1396,148.9375 583.499,149.0781 Q582.8584,149.2344 582.1553,149.2344 Q579.6553,149.2344 578.3271,147.5938 Q577.0146,145.9375 577.0146,142.8125 Q577.0146,139.6875 578.3271,138.0313 Q579.6553,136.375 582.1553,136.375 Q582.8584,136.375 583.499,136.5313 Q584.1553,136.6875 584.7178,136.9844 L584.7178,139.7031 Q584.0928,139.125 583.499,138.8594 Q582.9053,138.5781 582.2803,138.5781 Q580.9365,138.5781 580.249,139.6563 Q579.5615,140.7188 579.5615,142.8125 Q579.5615,144.9063 580.249,145.9844 Q580.9365,147.0469 582.2803,147.0469 Q582.9053,147.0469 583.499,146.7813 Q584.0928,146.5 584.7178,145.9219 L584.7178,148.6406 Z " fill="#000000"/><text fill="#000000" font-family="sans-serif" font-size="14" lengthAdjust="spacing" textLength="104.8359" x="602.249" y="147.8467">MethodInvoker</text><rect fill="#FFFFFF" height="15.9688" style="stroke:#181818;stroke-width:1;stroke-dasharray:2.0,2.0;" width="169.1738" x="848.5639" y="124"/><text fill="#000000" font-family="sans-serif" font-size="12" font-style="italic" lengthAdjust="spacing" textLength="167.1738" x="849.5639" y="136.1387">E extends MethodExtension</text><line style="stroke:#181818;stroke-width:0.5;" x1="434.27" x2="1013.7378" y1="159" y2="159"/><line style="stroke:#181818;stroke-width:0.5;" x1="434.27" x2="1013.7378" y1="167" y2="167"/><ellipse cx="444.27" cy="180.6484" fill="#84BE84" rx="3" ry="3" style="stroke:#038048;stroke-width:1;"/><text fill="#000000" font-family="sans-serif" font-size="14" lengthAdjust="spacing" textLength="468.1865" x="453.27" y="183.9951">invoke(Mapper, String, AnnotatedCommandExecutor&lt;E&gt;) : Object</text><rect fill="#F24D5C" height="6" style="stroke:#C82930;stroke-width:1;" width="6" x="441.27" y="193.9453"/><text fill="#000000" font-family="sans-serif" font-size="14" lengthAdjust="spacing" textLength="555.4678" x="453.27" y="200.292">getFallbackMethods(String, AnnotatedCommandExecutor&lt;E&gt;) : List&lt;Method&gt;</text><rect fill="#F24D5C" height="6" style="stroke:#C82930;stroke-width:1;" width="6" x="441.27" y="210.2422"/><text fill="#000000" font-family="sans-serif" font-size="14" lengthAdjust="spacing" textLength="520.3994" x="453.27" y="216.5889">invokeMethod(Method, AnnotatedCommandExecutor&lt;E&gt;, String) : Object</text></g><!--link ArgumentFallback to Priority--><g class="link" data-entity-1="ArgumentFallback" data-entity-2="Priority" data-source-line="17" data-uid="lnk8" id="link_ArgumentFallback_Priority"><path codeLine="17" d="M856,752.4 C856,775.1 856,797.99 856,822.99" fill="none" id="ArgumentFallback-to-Priority" style="stroke:#181818;stroke-width:1;stroke-dasharray:7.0,7.0;"/><polygon fill="#181818" points="856,828.99,860,819.99,856,823.99,852,819.99,856,828.99" style="stroke:#181818;stroke-width:1;"/><text fill="#000000" font-family="sans-serif" font-size="13" lengthAdjust="spacing" textLength="46.9092" x="857" y="795.3269">priority</text></g><!--reverse link AnnotatedCommandExecutor to MethodProvider--><g class="link" data-entity-1="AnnotatedCommandExecutor" data-entity-2="MethodProvider" data-source-line="50" data-uid="lnk18" id="link_AnnotatedCommandExecutor_MethodProvider"><path codeLine="50" d="M642.6721,399.5605 C644.5221,422.2605 645.41,433.21 647.45,458.21" fill="none" id="AnnotatedCommandExecutor-backto-MethodProvider" style="stroke:#181818;stroke-width:1;"/><polygon fill="none" points="641.21,381.62,636.6919,400.0479,648.6523,399.0731,641.21,381.62" style="stroke:#181818;stroke-width:1;"/></g><!--link MethodInvoker to AnnotatedCommandExecutor--><g class="link" data-entity-1="MethodInvoker" data-entity-2="AnnotatedCommandExecutor" data-source-line="51" data-uid="lnk19" id="link_MethodInvoker_AnnotatedCommandExecutor"><path codeLine="51" d="M698.89,224.24 C686.15,248.5 673.649,272.3076 661.579,295.2976" fill="none" id="MethodInvoker-to-AnnotatedCommandExecutor" style="stroke:#181818;stroke-width:1;stroke-dasharray:7.0,7.0;"/><polygon fill="#181818" points="658.79,300.61,666.5151,294.5008,661.1142,296.183,659.432,290.7821,658.79,300.61" style="stroke:#181818;stroke-width:1;"/><text fill="#000000" font-family="sans-serif" font-size="13" lengthAdjust="spacing" textLength="45.0176" x="682" y="266.9569">&#171;calls&#187;</text></g><!--reverse link AnnotatedCommandExecutor to CommandSender--><g class="link" data-entity-1="AnnotatedCommandExecutor" data-entity-2="CommandSender" data-source-line="55" data-uid="lnk20" id="link_AnnotatedCommandExecutor_CommandSender"><path codeLine="55" d="M420.8665,368.1629 C353.3365,384.7529 293.99,410.22 242,458.48 C174.04,521.57 154.38,638.11 148.95,687.67" fill="none" id="AnnotatedCommandExecutor-backto-CommandSender" style="stroke:#181818;stroke-width:1;"/><polygon fill="none" points="432.52,365.3,425.739,362.847,420.8665,368.1629,427.6476,370.6159,432.52,365.3" style="stroke:#181818;stroke-width:1;"/><text fill="#000000" font-family="sans-serif" font-size="13" lengthAdjust="spacing" textLength="110.9697" x="243" y="519.6369">commandSender</text><text fill="#000000" font-family="sans-serif" font-size="13" lengthAdjust="spacing" textLength="8.271" x="140.4829" y="677.0018">1</text></g><!--reverse link AnnotatedCommandExecutor to MethodExtension--><g class="link" data-entity-1="AnnotatedCommandExecutor" data-entity-2="MethodExtension" data-source-line="56" data-uid="lnk21" id="link_AnnotatedCommandExecutor_MethodExtension"><path codeLine="56" d="M527.6044,387.3509 C490.8444,406.0509 462.07,426.03 434,458.48 C373.47,528.45 347.53,639.76 338.75,687.73" fill="none" id="AnnotatedCommandExecutor-backto-MethodExtension" style="stroke:#181818;stroke-width:1;"/><polygon fill="none" points="538.3,381.91,531.1385,381.0653,527.6044,387.3509,534.7658,388.1957,538.3,381.91" style="stroke:#181818;stroke-width:1;"/><text fill="#000000" font-family="sans-serif" font-size="13" lengthAdjust="spacing" textLength="40.2061" x="435" y="519.6369">plugin</text><text fill="#000000" font-family="sans-serif" font-size="13" lengthAdjust="spacing" textLength="8.271" x="330.7227" y="677.0765">1</text></g><!--link MethodProvider to MethodCanvas--><g class="link" data-entity-1="MethodProvider" data-entity-2="MethodCanvas" data-source-line="57" data-uid="lnk22" id="link_MethodProvider_MethodCanvas"><path codeLine="57" d="M612.74,571.92 C585.7,610.39 554.6202,654.6012 534.6802,682.9712" fill="none" id="MethodProvider-to-MethodCanvas" style="stroke:#181818;stroke-width:1;stroke-dasharray:7.0,7.0;"/><polygon fill="#181818" points="531.23,687.88,539.6778,682.8169,534.1051,683.7893,533.1327,678.2167,531.23,687.88" style="stroke:#181818;stroke-width:1;"/><text fill="#000000" font-family="sans-serif" font-size="13" lengthAdjust="spacing" textLength="45.6904" x="588" y="616.7369">&#171;uses&#187;</text></g><!--link MethodProvider to Argument--><g class="link" data-entity-1="MethodProvider" data-entity-2="Argument" data-source-line="58" data-uid="lnk23" id="link_MethodProvider_Argument"><path codeLine="58" d="M645.45,571.9 C644.92,587.8 645.62,605.04 649,620.67 C654.21,644.73 663.4961,664.834 673.2361,682.524" fill="none" id="MethodProvider-to-Argument" style="stroke:#181818;stroke-width:1;stroke-dasharray:7.0,7.0;"/><polygon fill="#181818" points="676.13,687.78,675.2931,677.9668,673.7184,683.4,668.2852,681.8253,676.13,687.78" style="stroke:#181818;stroke-width:1;"/><text fill="#000000" font-family="sans-serif" font-size="13" lengthAdjust="spacing" textLength="45.6904" x="650" y="616.7369">&#171;uses&#187;</text></g><!--link MethodProvider to ArgumentFallback--><g class="link" data-entity-1="MethodProvider" data-entity-2="ArgumentFallback" data-source-line="59" data-uid="lnk24" id="link_MethodProvider_ArgumentFallback"><path codeLine="59" d="M687.91,572.05 C701.3,589.5 717.73,607.58 736,620.67 C744.46,626.73 748.99,623.47 758,628.67 C778.39,640.44 794.2058,652.6048 811.0058,667.4648" fill="none" id="MethodProvider-to-ArgumentFallback" style="stroke:#181818;stroke-width:1;stroke-dasharray:7.0,7.0;"/><polygon fill="#181818" points="815.5,671.44,811.4089,662.4811,811.7548,668.1273,806.1086,668.4733,815.5,671.44" style="stroke:#181818;stroke-width:1;"/><text fill="#000000" font-family="sans-serif" font-size="13" lengthAdjust="spacing" textLength="45.6904" x="737" y="616.7369">&#171;uses&#187;</text></g><!--link MethodProvider to Mapper--><g class="link" data-entity-1="MethodProvider" data-entity-2="Mapper" data-source-line="60" data-uid="lnk25" id="link_MethodProvider_Mapper"><path codeLine="60" d="M810.32,561.14 C858.19,578.42 909.54,600.84 953,628.67 C974.53,642.46 990.9675,658.1491 1006.1775,675.0591" fill="none" id="MethodProvider-to-Mapper" style="stroke:#181818;stroke-width:1;stroke-dasharray:7.0,7.0;"/><polygon fill="#181818" points="1010.19,679.52,1007.1452,670.1536,1006.8463,675.8025,1001.1973,675.5036,1010.19,679.52" style="stroke:#181818;stroke-width:1;"/><text fill="#000000" font-family="sans-serif" font-size="13" lengthAdjust="spacing" textLength="45.6904" x="939" y="616.7369">&#171;uses&#187;</text></g><!--link MethodInvoker to Mapper--><g class="link" data-entity-1="MethodInvoker" data-entity-2="Mapper" data-source-line="61" data-uid="lnk26" id="link_MethodInvoker_Mapper"><path codeLine="61" d="M805.96,224.32 C819.21,233.45 832.38,243.45 844,253.89 C863.98,271.84 866.71,278.8 882,300.89 C914.46,347.76 924.27,359.2 947,411.48 C987.87,505.5 1015.6038,618.0739 1027.9938,673.6239" fill="none" id="MethodInvoker-to-Mapper" style="stroke:#181818;stroke-width:1;stroke-dasharray:7.0,7.0;"/><polygon fill="#181818" points="1029.3,679.48,1031.2448,669.8251,1028.2115,674.5999,1023.4367,671.5666,1029.3,679.48" style="stroke:#181818;stroke-width:1;"/><text fill="#000000" font-family="sans-serif" font-size="13" lengthAdjust="spacing" textLength="45.6904" x="954" y="424.5469">&#171;uses&#187;</text></g><!--link MethodInvoker to ArgumentFallback--><g class="link" data-entity-1="MethodInvoker" data-entity-2="ArgumentFallback" data-source-line="62" data-uid="lnk27" id="link_MethodInvoker_ArgumentFallback"><path codeLine="62" d="M796.91,224.25 C821.8,244.67 846.89,270.77 861,300.89 C919.3,425.32 888.3397,589.3979 868.8397,665.4779" fill="none" id="MethodInvoker-to-ArgumentFallback" style="stroke:#181818;stroke-width:1;stroke-dasharray:7.0,7.0;"/><polygon fill="#181818" points="867.35,671.29,873.4593,663.5649,868.5914,666.4466,865.7098,661.5787,867.35,671.29" style="stroke:#181818;stroke-width:1;"/><text fill="#000000" font-family="sans-serif" font-size="13" lengthAdjust="spacing" textLength="45.6904" x="893" y="424.5469">&#171;uses&#187;</text></g><!--SRC=[bLHDRzim3BtdLmZPeHxQ6EYwK-0Po8fqBP0imNBOOTX1iGb7YoqPakos-_Xdk-sFJR9aJx5ZrzF95X_9HpvI5-YTEcYBeoDE036U-08od1yOltdhOqgPn98mMi4ckOLDUt5Jz6E2r74y5pmfCg1oqcUumscwLv6jgpwNgCHf0TvhD4SxoGbDldnrZ3adZ1FvNDctzgUo_p9PW1PPOt3YhZQVc- -Fcq_hnQhvlN_uSE-aI43kKYQh34IHTu9tUFinUwH- -2_Xl67OhdcDynpuOAKsbKfsCIXEN6JPyx0k5QIM94gn4EYMPHccyGve3DovNuCyiFWMqnABplNoIG8LYl_Bh2B6OPYKHZHZiXUIuqZQR0lJA8Wjo-KJH8LaF5WYq1JY3g7GQUKh5Bd5gOPsYpMuF2qIGXLWwUhgLhpbh2HnIwciCjqnRjhakJtJ-fMCnFtmUbokFQFpU8yt_-rnSyxZJ9aFj6H76DdVIxK86kwP8Rwoyter85ke2Mpsto2IJPYPtgsQg4adl96XLaJ8mFY4Ja33oznRLGP3rTHRxEhzxd54mS_Ph3KVbSD9Bv6lNeBU47CK196gNOIXiqlluJk1Gq4JeEZFxxqAiiL7a80EX3v2OlQfDoPJhARNqzDfLvbEjk5bzvRo-X6hrcJIsWXTdplvLKs505tI6MZzMew4DO_gCDo-ensGAy8Op43Qlm00]--></g></svg>